PathFileType	4	(x/y/z)	S09_M20_T05
DataRate	CameraRate	NumFrames	NumMarkers	Units	OrigDataRate	OrigDataStartFrame	OrigNumFrames
240	240	10	51	mm	240	1	580
Frame#	Time	Sternum			R.Acromium			L.Acromium			Top.Head			R.ASIS			L.ASIS			R.PSIS			L.PSIS			R.Great.Tro			L.Great.Tro			R.Iliac.Crest			L.Iliac.Crest			V.Sacral			R.Thigh.Upper.Post			R.Thigh.Lower.Ant			R.Thigh.Lower.Post			R.Thigh.Upper.Ant			R.Knee.Lat			R.Knee.Med			R.Shank.Upper.Post			R.Shank.Lower.Ant			R.Shank.Lower.Post			R.Shank.Upper.Ant			R.Ankle.Lat			R.Ankle.Med			R.Heel.Upper			R.Heel.Med			R.Heel.Lat			R.Toe.Lat			R.Toe.Med			R.Toe.Tip			L.Thigh.Upper.Post			L.Thigh.Lower.Ant			L.Thigh.Lower.Post			L.Thigh.Upper.Ant			L.Knee.Lat			L.Knee.Med			L.Shank.Upper.Post			L.Shank.Lower.Ant			L.Shank.Lower.Post			L.Shank.Upper.Ant			L.Ankle.Lat			L.Ankle.Med			L.Heel.Upper			L.Heel.Med			L.Heel.Lat			L.Toe.Lat			L.Toe.Med			L.Toe.Tip			Cervical.Spine			Back			
		X1	Y1	Z1	X2	Y2	Z2	X3	Y3	Z3	X4	Y4	Z4	X5	Y5	Z5	X6	Y6	Z6	X7	Y7	Z7	X8	Y8	Z8	X9	Y9	Z9	X10	Y10	Z10	X11	Y11	Z11	X12	Y12	Z12	X13	Y13	Z13	X14	Y14	Z14	X15	Y15	Z15	X16	Y16	Z16	X17	Y17	Z17	X18	Y18	Z18	X19	Y19	Z19	X20	Y20	Z20	X21	Y21	Z21	X22	Y22	Z22	X23	Y23	Z23	X24	Y24	Z24	X25	Y25	Z25	X26	Y26	Z26	X27	Y27	Z27	X28	Y28	Z28	X29	Y29	Z29	X30	Y30	Z30	X31	Y31	Z31	X32	Y32	Z32	X33	Y33	Z33	X34	Y34	Z34	X35	Y35	Z35	X36	Y36	Z36	X37	Y37	Z37	X38	Y38	Z38	X39	Y39	Z39	X40	Y40	Z40	X41	Y41	Z41	X42	Y42	Z42	X43	Y43	Z43	X44	Y44	Z44	X45	Y45	Z45	X46	Y46	Z46	X47	Y47	Z47	X48	Y48	Z48	X49	Y49	Z49	X50	Y50	Z50	X51	Y51	Z51	

1	0	-833.32	1140.6	276.76	-974	1381.2	406.16	-976.51	1374.9	104.72	-984.32	1681.7	242.18	-884.36	971.15	394.97	-846.63	979.44	149.82	-1092.2	999.89	282.54	-1070.9	992.29	196.02	-990.87	890.39	454.4	-898.7	887.27	71.231	-984.71	1052	428.61	-961.01	1061.3	98.057	-1101	962.46	234.1	-1081.8	661.43	410.75	-1049.3	541.41	375	-1118.2	579.98	377.29	-1021.1	622.57	407.2	-1104.2	481.05	359.26	-1101.6	474.9	238.87	-1256.3	365.52	358.68	-1229.8	279.6	347.59	-1297.1	303.91	346.69	-1194.2	343.08	361.43	-1376.2	132.99	323	-1348.2	131.94	234.96	-1451.7	132.37	274.78	-1448.2	96.404	246.75	-1457.6	105.02	310.75	-1305.4	46.243	362.32	-1257.2	40.743	256.69	-1208.7	44.738	303.44	-848.54	625.64	109.68	-731.44	576.9	118.38	-796.16	553.58	131.69	-781.67	647.3	92.135	-707.84	505.54	128.85	-711.17	516.38	266.41	-689.58	366.66	113.55	-591.84	315.46	127.13	-655.56	297.26	119.91	-627.76	384.33	122.56	-544.32	124.27	142.37	-526.65	132.72	234.04	-578.93	50.121	197.21	-552.71	38.785	227.87	-560.81	27.186	167.96	-420.51	127.54	110.01	-393.23	157.04	217.07	-366.23	199.98	157.38	-1057.8	1428	265.39	-1096.4	1158.7	257.02
2	0.0041667	-827.26	1139.8	276.35	-968.54	1380.1	405.56	-970.84	1373.9	104.19	-979.12	1680.6	241.73	-878.56	969.97	394.81	-840.1	978.52	149.56	-1085.9	998.98	281.69	-1064.4	991.4	195.21	-985.25	889.35	453.72	-891.93	886.41	70.856	-978.79	1050.9	428.07	-954.54	1060.4	97.502	-1094.6	961.57	233.2	-1076.7	660.72	410.21	-1044.5	540.52	374.86	-1113.2	579.37	376.8	-1016	621.64	406.94	-1099.5	480.29	359.05	-1096.4	473.91	238.76	-1252.5	366.14	358.47	-1227	280	347.3	-1293.9	304.9	346.57	-1190.6	343.1	361.37	-1374.6	134.62	323	-1346.3	133.27	235.1	-1449.9	134.84	274.65	-1446.8	98.988	246.52	-1456.5	107.16	310.58	-1305.1	46.578	362.26	-1256.7	40.815	256.75	-1208.5	44.676	303.48	-841.89	624.81	109.74	-724.82	576.09	118.81	-789.54	552.78	131.97	-774.94	646.46	92.347	-701.53	504.68	129	-704.59	515.86	266.46	-684.36	365.63	113.79	-587.33	313.39	127.73	-651.08	295.9	120.14	-622.5	382.64	123.09	-541.59	122.39	142.53	-524.21	130.16	234.31	-577.27	50.117	197.12	-551.47	38.313	227.81	-559.8	26.828	167.9	-418.19	124.3	110.23	-390.66	153.5	217.29	-363.26	196.24	157.55	-1052.3	1426.7	264.8	-1090.4	1157.4	256.36
3	0.0083333	-820.92	1139	275.92	-962.85	1378.9	404.94	-964.93	1372.8	103.65	-973.7	1679.4	241.26	-872.47	968.75	394.63	-833.29	977.57	149.29	-1079.3	998.03	280.81	-1057.6	990.49	194.37	-979.36	888.27	453.02	-884.84	885.54	70.462	-972.6	1049.8	427.51	-947.78	1059.6	96.921	-1087.9	960.63	232.25	-1071.2	659.98	409.65	-1039.4	539.59	374.73	-1107.9	578.72	376.29	-1010.8	620.68	406.68	-1094.6	479.5	358.84	-1091	472.88	238.67	-1248.5	366.8	358.26	-1224	280.42	347.01	-1290.5	305.95	346.45	-1186.9	343.14	361.31	-1372.9	136.34	323	-1344.2	134.67	235.26	-1448	137.45	274.52	-1445.3	101.72	246.27	-1455.2	109.43	310.4	-1304.7	46.934	362.21	-1256.2	40.888	256.81	-1208.2	44.613	303.52	-834.97	623.96	109.78	-717.95	575.24	119.23	-782.67	551.95	132.23	-767.94	645.6	92.555	-695	503.8	129.13	-697.78	515.3	266.47	-678.92	364.58	114.03	-582.62	311.3	128.32	-646.39	294.53	120.38	-617.01	380.94	123.62	-538.69	120.5	142.68	-521.6	127.56	234.59	-575.51	50.185	197.02	-550.17	37.88	227.75	-558.73	26.517	167.84	-415.76	120.9	110.46	-387.95	149.78	217.53	-360.08	192.26	157.71	-1046.6	1425.4	264.19	-1084	1156	255.66
4	0.0125	-814.35	1138.1	275.49	-956.97	1377.7	404.31	-958.81	1371.7	103.07	-968.1	1678.3	240.78	-866.14	967.5	394.43	-826.26	976.6	149.01	-1072.4	997.04	279.9	-1050.5	989.56	193.51	-973.24	887.16	452.31	-877.49	884.67	70.05	-966.18	1048.6	426.93	-940.76	1058.6	96.317	-1081	959.67	231.27	-1065.6	659.22	409.09	-1034	538.63	374.59	-1102.4	578.06	375.76	-1005.2	619.69	406.43	-1089.5	478.69	358.64	-1085.4	471.81	238.6	-1244.4	367.48	358.05	-1220.9	280.87	346.75	-1287	307.05	346.32	-1183	343.18	361.25	-1371.1	138.13	323	-1342	136.15	235.44	-1445.9	140.19	274.37	-1443.7	104.58	246	-1453.8	111.84	310.19	-1304.3	47.312	362.14	-1255.7	40.96	256.89	-1208	44.549	303.57	-827.84	623.11	109.8	-710.88	574.38	119.64	-775.61	551.12	132.46	-760.72	644.72	92.752	-688.27	502.9	129.24	-690.77	514.7	266.47	-673.3	363.54	114.28	-577.72	309.22	128.91	-641.51	293.17	120.62	-611.34	379.23	124.14	-535.65	118.62	142.83	-518.84	124.96	234.86	-573.66	50.338	196.91	-548.81	37.502	227.69	-557.62	26.267	167.77	-413.22	117.37	110.72	-385.09	145.9	217.78	-356.7	188.06	157.88	-1040.8	1424.1	263.55	-1077.5	1154.6	254.92
5	0.016667	-807.56	1137.3	275.04	-950.93	1376.5	403.65	-952.51	1370.6	102.48	-962.36	1677.1	240.28	-859.59	966.23	394.2	-819.04	975.61	148.71	-1065.4	996.03	278.98	-1043.3	988.63	192.62	-966.92	886.01	451.57	-869.89	883.81	69.619	-959.56	1047.4	426.33	-933.53	1057.7	95.695	-1073.8	958.69	230.27	-1059.7	658.44	408.51	-1028.5	537.65	374.46	-1096.8	577.37	375.24	-999.55	618.67	406.17	-1084.2	477.87	358.46	-1079.5	470.71	238.54	-1240	368.2	357.84	-1217.7	281.35	346.49	-1283.3	308.21	346.18	-1179	343.25	361.18	-1369.2	139.99	323	-1339.7	137.69	235.63	-1443.8	143.05	274.22	-1442	107.57	245.71	-1452.3	114.39	309.96	-1304	47.71	362.07	-1255.1	41.032	256.97	-1207.8	44.485	303.62	-820.54	622.28	109.79	-703.65	573.5	120.03	-768.4	550.28	132.67	-753.32	643.85	92.932	-681.4	501.99	129.33	-683.63	514.09	266.43	-667.52	362.51	114.54	-572.65	307.17	129.48	-636.46	291.83	120.87	-605.52	377.56	124.64	-532.47	116.77	142.96	-515.95	122.39	235.12	-571.73	50.586	196.79	-547.41	37.191	227.62	-556.46	26.09	167.7	-410.59	113.73	111	-382.11	141.87	218.04	-353.14	183.67	158.04	-1034.7	1422.7	262.89	-1070.7	1153.1	254.16
6	0.020833	-800.61	1136.5	274.59	-944.76	1375.2	402.99	-946.07	1369.5	101.87	-956.5	1675.9	239.77	-852.85	964.95	393.95	-811.67	974.62	148.4	-1058.2	994.99	278.04	-1035.9	987.7	191.72	-960.41	884.84	450.83	-862.11	882.97	69.171	-952.77	1046.1	425.72	-926.13	1056.9	95.059	-1066.5	957.69	229.25	-1053.7	657.66	407.93	-1022.9	536.66	374.35	-1091	576.67	374.71	-993.69	617.64	405.93	-1078.7	477.03	358.29	-1073.4	469.59	238.51	-1235.6	368.95	357.64	-1214.3	281.86	346.26	-1279.5	309.41	346.04	-1174.8	343.33	361.11	-1367.3	141.91	323.01	-1337.3	139.29	235.85	-1441.6	146.02	274.06	-1440.2	110.69	245.4	-1450.7	117.07	309.71	-1303.6	48.132	362	-1254.6	41.104	257.06	-1207.6	44.421	303.67	-813.12	621.48	109.75	-696.3	572.63	120.39	-761.08	549.45	132.83	-745.79	642.99	93.088	-674.42	501.08	129.39	-676.38	513.46	266.36	-661.61	361.52	114.79	-567.45	305.17	130.01	-631.27	290.53	121.11	-599.58	375.93	125.12	-529.17	114.98	143.08	-512.92	119.88	235.37	-569.72	50.935	196.65	-545.98	36.957	227.55	-555.26	25.997	167.63	-407.89	110	111.29	-379.03	137.72	218.32	-349.4	179.08	158.2	-1028.6	1421.3	262.22	-1063.8	1151.6	253.37
7	0.025	-793.52	1135.6	274.13	-938.5	1374	402.32	-939.52	1368.4	101.24	-950.56	1674.8	239.25	-845.94	963.66	393.67	-804.18	973.62	148.09	-1050.9	993.94	277.1	-1028.4	986.78	190.82	-953.76	883.65	450.09	-854.16	882.18	68.704	-945.83	1044.9	425.09	-918.58	1056	94.413	-1059.1	956.68	228.21	-1047.5	656.86	407.35	-1017.1	535.65	374.25	-1085	575.96	374.18	-987.68	616.6	405.7	-1073.1	476.19	358.15	-1067.2	468.44	238.52	-1231	369.72	357.46	-1210.8	282.4	346.06	-1275.5	310.66	345.9	-1170.5	343.44	361.05	-1365.2	143.9	323.03	-1334.6	140.95	236.09	-1439.2	149.09	273.89	-1438.3	113.92	245.07	-1449	119.88	309.42	-1303.1	48.578	361.92	-1254	41.177	257.15	-1207.4	44.358	303.74	-805.6	620.71	109.66	-688.87	571.77	120.7	-753.68	548.65	132.94	-738.17	642.16	93.215	-667.36	500.2	129.41	-669.09	512.83	266.25	-655.6	360.58	115.04	-562.14	303.27	130.51	-625.95	289.31	121.34	-593.54	374.36	125.57	-525.77	113.27	143.17	-509.8	117.46	235.6	-567.65	51.388	196.5	-544.52	36.81	227.47	-554.04	25.995	167.56	-405.14	106.21	111.61	-375.86	133.47	218.6	-345.51	174.33	158.37	-1022.3	1420	261.53	-1056.7	1150.1	252.56
8	0.029167	-786.31	1134.8	273.66	-932.16	1372.7	401.65	-932.88	1367.3	100.59	-944.55	1673.6	238.73	-838.89	962.38	393.36	-796.63	972.65	147.75	-1043.4	992.88	276.18	-1020.9	985.89	189.92	-946.97	882.45	449.34	-846.08	881.44	68.218	-938.78	1043.6	424.47	-910.92	1055.2	93.763	-1051.6	955.68	227.18	-1041.3	656.06	406.77	-1011.1	534.64	374.17	-1078.9	575.23	373.66	-981.55	615.56	405.49	-1067.4	475.35	358.04	-1060.7	467.28	238.56	-1226.2	370.52	357.29	-1207.1	282.97	345.9	-1271.5	311.95	345.75	-1166.1	343.57	360.98	-1363	145.94	323.05	-1331.9	142.67	236.35	-1436.8	152.26	273.71	-1436.2	117.26	244.72	-1447.2	122.83	309.11	-1302.7	49.05	361.82	-1253.3	41.253	257.25	-1207.1	44.294	303.8	-798.02	620.01	109.53	-681.37	570.94	120.97	-746.23	547.89	132.99	-730.48	641.37	93.304	-660.22	499.35	129.41	-661.76	512.2	266.1	-649.5	359.72	115.27	-556.72	301.46	130.97	-620.53	288.17	121.56	-587.42	372.89	125.98	-522.29	111.66	143.25	-506.59	115.14	235.8	-565.54	51.942	196.33	-543.05	36.754	227.39	-552.81	26.087	167.47	-402.34	102.37	111.94	-372.63	129.13	218.91	-341.49	169.43	158.54	-1016	1418.6	260.83	-1049.5	1148.6	251.73
9	0.033333	-779	1134	273.19	-925.77	1371.5	400.98	-926.18	1366.2	99.933	-938.49	1672.5	238.19	-831.71	961.11	393.01	-789.02	971.69	147.41	-1035.9	991.81	275.27	-1013.2	985.04	189.04	-940.06	881.25	448.61	-837.9	880.79	67.712	-931.63	1042.4	423.83	-903.19	1054.4	93.114	-1044	954.68	226.15	-1034.8	655.27	406.2	-1005	533.63	374.11	-1072.7	574.5	373.16	-975.3	614.53	405.3	-1061.5	474.51	357.95	-1054.1	466.1	238.64	-1221.3	371.35	357.15	-1203.4	283.57	345.79	-1267.3	313.28	345.61	-1161.6	343.73	360.92	-1360.8	148.03	323.08	-1329	144.43	236.64	-1434.2	155.53	273.51	-1434	120.71	244.35	-1445.2	125.91	308.76	-1302.3	49.552	361.72	-1252.7	41.332	257.35	-1206.9	44.23	303.88	-790.4	619.37	109.35	-673.84	570.17	121.18	-738.75	547.19	132.97	-722.75	640.65	93.35	-653.04	498.56	129.37	-654.44	511.6	265.92	-643.34	358.96	115.49	-551.22	299.78	131.38	-615.03	287.14	121.76	-581.23	371.53	126.35	-518.76	110.15	143.29	-503.33	112.95	235.98	-563.41	52.59	196.14	-541.59	36.791	227.3	-551.57	26.273	167.38	-399.53	98.513	112.3	-369.37	124.75	219.24	-337.36	164.41	158.72	-1009.6	1417.3	260.12	-1042.3	1147.1	250.89
10	0.0375	-771.63	1133.2	272.71	-919.34	1370.4	400.31	-919.43	1365.2	99.266	-932.41	1671.4	237.66	-824.43	959.86	392.63	-781.4	970.78	147.05	-1028.4	990.74	274.39	-1005.6	984.23	188.18	-933.05	880.04	447.88	-829.65	880.23	67.184	-924.41	1041.2	423.2	-895.41	1053.7	92.471	-1036.4	953.7	225.14	-1028.3	654.48	405.63	-998.86	532.63	374.08	-1066.3	573.77	372.67	-968.94	613.51	405.13	-1055.5	473.68	357.91	-1047.3	464.9	238.76	-1216.3	372.21	357.03	-1199.5	284.2	345.72	-1263	314.65	345.49	-1157	343.91	360.88	-1358.4	150.16	323.12	-1325.9	146.23	236.96	-1431.4	158.89	273.3	-1431.7	124.27	243.95	-1443	129.12	308.36	-1301.9	50.085	361.6	-1252	41.418	257.46	-1206.7	44.165	303.96	-782.76	618.82	109.1	-666.3	569.47	121.33	-731.25	546.55	132.89	-715	640.01	93.344	-645.81	497.85	129.31	-647.14	511.05	265.7	-637.12	358.3	115.67	-545.66	298.24	131.73	-609.46	286.24	121.93	-575	370.28	126.67	-515.21	108.75	143.31	-500.05	110.9	236.12	-561.28	53.322	195.92	-540.16	36.918	227.19	-550.34	26.547	167.27	-396.71	94.662	112.66	-366.09	120.34	219.58	-333.17	159.28	158.93	-1003.2	1416	259.41	-1035	1145.6	250.03
